<svg id="Livello_1" data-name="Livello 1" xmlns="http://www.w3.org/2000/svg" viewBox="0 0 238.3 299.1"><defs><style>.cls-1{fill:#1a1a1a;}.cls-2{isolation:isolate;}</style></defs><path class="cls-1" d="M209.55,164.35V252c0,7.6.1,7.6-7.3,7.6q-84.15-.75-168.4-1.6c-3.6,0-4.4-.9-4.3-4.8.2-8.7-.8-17.4-.8-26.1,0-33,.3-66,.5-99,.1-24.9.1-49.8.3-74.7,0-5.2.5-10.3.7-15.5.2-4.3,1.2-5.3,5.5-5.2,11.5.3,23,.8,34.5.9,24.3.3,48.6.6,72.8.7,8.7,0,17.4-.6,26.1-.7,1.7,0,3.6,1.2,5,2.4,5.4,4.8,10.7,9.6,15.8,14.7,5.9,5.9,11.7,11.9,17.1,18.2a12.65,12.65,0,0,1,2.3,7.3c.2,29.4.1,58.9.1,88.4Zm-43.4-126.6H34.05c0,71.5-2.3,143.4-.3,215.5l171.3,2.2V76.65c-2-.4-4-.6-6-.8-9.6-.2-19.2-.4-28.8-.3-3.2,0-4.2-.9-4.2-4.1C166.25,60.35,166.15,49.15,166.15,37.75Zm4.4.8v32.9H205Z"/><path class="cls-1" d="M133.65,99.45a2.94,2.94,0,0,1-1,1.2,7.74,7.74,0,0,1-3,1.1c-1.5.3-2.6.5-3.2.6.6,2.7.8,3.9.8,3.9.5,1.8,1,4.2,1.6,7.2,1.2,7.1,2.6,13,3.9,18a27.41,27.41,0,0,1,.5,2.8,2.14,2.14,0,0,1-.8,1.7,3.18,3.18,0,0,1-2,.8,2.14,2.14,0,0,1-1.9-1.1,7.61,7.61,0,0,1-1.2-1.9c-.7-2.4-1.2-5-1.8-8s-1.2-6.5-1.8-10.6a64.08,64.08,0,0,0-1.3-6.7c-.6-2.7-1.1-4.4-1.2-5.3-4.2.6-11.2,1.7-21.3,3.3l-6,1.2-2.2,6.1-3,8.4c-2.4,7.6-4.2,13.5-5.2,17.6a5.82,5.82,0,0,1-1.2,2.5,2.9,2.9,0,0,1-2.3,1,2.64,2.64,0,0,1-1.9-.7,2.29,2.29,0,0,1-.8-1.7,20.65,20.65,0,0,1,1.2-4.9c.8-2.5,1.3-4,1.5-4.4.2-.7.8-2.3,1.7-4.8.9-2.8,2.1-6,3.5-9.9s2.4-6.4,2.9-7.7c-3.6.8-6.2,1.5-8,2a38.77,38.77,0,0,1-4.9,1.1,1.85,1.85,0,0,1-1.7-.9,2.9,2.9,0,0,1-.5-1.8,1.81,1.81,0,0,1,.7-1.7,6.67,6.67,0,0,1,2.1-.9c2.7-.7,5.5-1.2,8.4-1.9a47.78,47.78,0,0,1,6.2-1.2c.7-2,1.2-3.7,1.6-5.2.2-.9.7-2,1.1-3.4s1-3.1,1.5-5.1l1.6-5.3c2.7-9.4,4.2-14.7,4.6-16a16,16,0,0,1,1-2.3,1.44,1.44,0,0,1,1.3-.8,9.86,9.86,0,0,1,3.8.7,5.5,5.5,0,0,0,.7-.9,2,2,0,0,1,1.1-.9,3.89,3.89,0,0,1,1.5-.2c1.2,0,2.7,1.4,4.3,4.3a77,77,0,0,1,4.7,10.1c.9,2.3,2.1,5.7,3.5,10.3s2.3,7.6,2.7,9a13.1,13.1,0,0,0,2.7-.6l1.4-.5a7.46,7.46,0,0,0,1.2-.7,3.6,3.6,0,0,1,1.2-.8,1.06,1.06,0,0,1,1.2.1,2.48,2.48,0,0,1,1.3,2.6A2.14,2.14,0,0,0,133.65,99.45Zm-15.5-8.7A86.21,86.21,0,0,0,115,81a58.56,58.56,0,0,0-3.8-8c-1.5-2.7-2.8-4.4-3.9-5.2l-1.2,2.8a49.82,49.82,0,0,0-3,7.2c-1.7,5.1-4.3,13.4-8,24.9l12.2-2,10-1.6,2.8-.4a51.78,51.78,0,0,0-1.9-7.9Z"/><path class="cls-1" d="M142.45,66.65a6.68,6.68,0,0,1-3.6-1.4q-1.8-1.5-1.8-2.4a3,3,0,0,1,1.1-2.2,3.21,3.21,0,0,1,2.2-1,5.63,5.63,0,0,1,2.6,1.7,20,20,0,0,1,1.9,2.2,9.91,9.91,0,0,1,1.1,1.7C145.85,66.15,144.75,66.65,142.45,66.65Zm5.2,65.9a3,3,0,0,1-2.1.5c-1-.1-1.7-1.7-2.2-4.7s-.9-8.9-1.4-17.4c-.2-5.7-.5-11.2-.8-16.6s-.3-9.6-.4-12.6a4.67,4.67,0,0,1,.3-1.7,1.82,1.82,0,0,1,1.4-.6,3,3,0,0,1,3.1,2,28,28,0,0,1,.7,7.6l-.1,12.4a154.73,154.73,0,0,0,.7,17c0,.2.3,2.4.9,6.7.3,1.9.6,3.9.8,5.8a2,2,0,0,1-.9,1.7Z"/><g class="cls-2"><path d="M118.15,185.05a61.22,61.22,0,0,1-15.4,9.2q-3.6,1.65-7.2,3c-2.4.9-4.1,1.5-4.8,1.7.4,9.3.6,17.3.6,23.8a15.19,15.19,0,0,0,.7,5.2,9,9,0,0,1,.7,2.6,2.48,2.48,0,0,1-1.3,2.1,4.32,4.32,0,0,1-2.6.9c-1.1,0-1.9-.8-2.2-2.4,0-.2-.1-.8-.3-2.1a33.59,33.59,0,0,1-.3-5.2c0-6-.2-15.7-.7-29.3q-.3-10.35-.3-14.7c0-2.4,0-4.7.1-6.8s.1-3.5.1-4.3a116.37,116.37,0,0,0-12.5,4,51.93,51.93,0,0,0-4.8,2.6l-2.7,1.5a4.31,4.31,0,0,1-2,.7,2.25,2.25,0,0,1-1.6-.8,2.64,2.64,0,0,1-.7-1.9c0-1,1.5-2.2,4.4-3.7a74.7,74.7,0,0,1,10.6-4.3,95.6,95.6,0,0,1,11.5-3.1,72.83,72.83,0,0,1,13.8-1.1c7,0,12.4.9,16.4,2.7s6,4.5,6,8.1A15,15,0,0,1,118.15,185.05Zm-4.7-16.2a38.56,38.56,0,0,0-12.1-1.6,80.4,80.4,0,0,0-10.8.7q-.15.9-.3,4.2c-.1,2.2-.2,4.3-.2,6.3l.1,8.4c.1,1.8.1,4.2.1,7,1.6-.2,5-1.3,10.2-3.4a58.23,58.23,0,0,0,12.7-7.4c3.4-2.7,5.2-5.6,5.2-8.7C118.45,171.75,116.75,169.85,113.45,168.85Z"/><path d="M161.05,222.45a28,28,0,0,1-10.7,7.4,34.88,34.88,0,0,1-13.9,2.8q-4.95,0-6.6-.9a2.89,2.89,0,0,1-1.7-2.5c0-.7.9-1.9,2.6-3.6s2.9-2.6,3.6-2.6c.9,0,1.4.2,1.4.6a1.21,1.21,0,0,1-.6.9c-.4.3-.6.6-.6.8s.5.6,1.4.9a11.79,11.79,0,0,0,3.5.5,28.13,28.13,0,0,0,9.7-1.8,24.73,24.73,0,0,0,8-4.6c2.1-1.9,3.1-3.9,3.1-6.1a6.63,6.63,0,0,0-1.9-4.9,12.22,12.22,0,0,0-4.9-2.7c-1.9-.6-5.2-1.4-9.8-2.5-5-1.1-9-2.2-11.7-3a22,22,0,0,1-6.7-3.3,6.08,6.08,0,0,1-2.5-5.1c0-3.7,1.8-7,5.4-10.1a39.2,39.2,0,0,1,12.4-7.2c4.7-1.8,8.3-2.6,10.8-2.6s3.9.8,3.9,2.3a6.37,6.37,0,0,1-.9,3,2.93,2.93,0,0,1-4.3,1.2,3.32,3.32,0,0,0-1.6-.5,28.41,28.41,0,0,0-7.2,1.5,27.66,27.66,0,0,0-8.9,4.5c-2.7,2-4,4.4-4,7.2,0,1.8,1,3.2,3.2,4.1a79.25,79.25,0,0,0,11.7,3.3,16,16,0,0,0,2.1.5,8,8,0,0,1,1.8.4c5.9,1.4,10.4,2.9,13.5,4.7a8.63,8.63,0,0,1,4.7,7.9A15.19,15.19,0,0,1,161.05,222.45Z"/></g></svg>