<svg id="Livello_1" data-name="Livello 1" xmlns="http://www.w3.org/2000/svg" viewBox="0 0 180.8 233.8"><defs><style>.cls-1{fill:#1a1a1a;}.cls-2{font-size:114.6px;font-family:InkFree, Ink Free;letter-spacing:-0.08em;}</style></defs><path class="cls-1" d="M209.5,167.9v87.6c0,7.6.1,7.6-7.3,7.6q-84.15-.75-168.4-1.6c-3.6,0-4.4-.9-4.3-4.8.2-8.7-.8-17.4-.8-26.1,0-33,.3-66,.5-99,.1-24.9.1-49.8.3-74.7,0-5.2.5-10.3.7-15.5.2-4.3,1.2-5.3,5.5-5.2,11.5.3,23,.8,34.5.9,24.3.3,48.6.6,72.8.7,8.7,0,17.4-.6,26.1-.7,1.7,0,3.6,1.2,5,2.4,5.4,4.8,10.7,9.6,15.8,14.7,5.9,5.9,11.7,11.9,17.1,18.2a12.2,12.2,0,0,1,2.3,7.3c.2,29.4.1,58.9.1,88.4ZM166.1,41.3H34c0,71.5-2.3,143.4-.3,215.5L205,259V80.2c-2-.4-4-.6-6-.8-9.6-.2-19.2-.4-28.8-.3-3.2,0-4.2-.9-4.2-4.1C166.2,63.9,166.1,52.7,166.1,41.3Zm4.4.8V75h34.4Z" transform="translate(-28.7 -36.19)"/><path class="cls-1" d="M133.63,103a2.89,2.89,0,0,1-1,1.25,7.9,7.9,0,0,1-3,1.08c-1.5.33-2.58.5-3.16.58.58,2.66.83,3.9.83,3.9.5,1.75,1,4.16,1.58,7.23,1.25,7.06,2.58,13,3.91,18a16.28,16.28,0,0,1,.49,2.83,2.34,2.34,0,0,1-.83,1.74,3,3,0,0,1-2,.75,2.3,2.3,0,0,1-1.91-1.08,8.94,8.94,0,0,1-1.16-1.91c-.67-2.41-1.17-5-1.75-8s-1.16-6.48-1.83-10.55c-.25-1.83-.74-4.07-1.33-6.73s-1.08-4.4-1.24-5.32c-4.16.59-11.22,1.67-21.27,3.33l-6.07,1.08-2.16,6.14-3,8.4c-2.41,7.56-4.15,13.45-5.23,17.61a5.08,5.08,0,0,1-1.25,2.49,3,3,0,0,1-2.32,1,2.67,2.67,0,0,1-1.91-.67,2,2,0,0,1-.75-1.74,20.85,20.85,0,0,1,1.24-4.9c.84-2.5,1.33-4,1.5-4.41.25-.66.83-2.32,1.66-4.81.92-2.75,2.08-6,3.49-9.89s2.41-6.4,2.91-7.73q-5.35,1.24-8,2a33.4,33.4,0,0,1-4.9,1.08,2,2,0,0,1-1.74-.92A3.18,3.18,0,0,1,72.9,113a2,2,0,0,1,.66-1.74,6.56,6.56,0,0,1,2.08-.92c2.66-.66,5.48-1.24,8.39-1.91s5-1.08,6.15-1.24c.66-2,1.24-3.74,1.57-5.16.25-.91.67-2,1.08-3.4s1-3.08,1.5-5.07l1.58-5.32c2.66-9.38,4.15-14.7,4.57-16a12,12,0,0,1,1-2.33,1.48,1.48,0,0,1,1.33-.83,10,10,0,0,1,3.83.67,3.85,3.85,0,0,0,.66-.92,2,2,0,0,1,1.08-.91,4.63,4.63,0,0,1,1.5-.25c1.24,0,2.74,1.41,4.32,4.32a76,76,0,0,1,4.73,10.14c.92,2.32,2.08,5.73,3.49,10.3s2.33,7.56,2.74,9a13.37,13.37,0,0,0,2.66-.58l1.41-.5a3.46,3.46,0,0,0,1.17-.74,3.22,3.22,0,0,1,1.16-.75,1.15,1.15,0,0,1,1.16.08,2.56,2.56,0,0,1,1.33,2.58A5,5,0,0,1,133.63,103Zm-15.54-8.72a98.5,98.5,0,0,0-3.16-9.81,57.66,57.66,0,0,0-3.82-8c-1.49-2.74-2.82-4.4-3.9-5.15L106,74.13a55.8,55.8,0,0,0-3,7.23q-2.49,7.61-8,24.92l12.21-2.08,10-1.57,2.83-.42C119.92,101,119.25,98.39,118.09,94.32Z" transform="translate(-28.7 -36.19)"/><path class="cls-1" d="M142.35,70.23a6.23,6.23,0,0,1-3.57-1.42c-1.17-1-1.83-1.83-1.83-2.41A2.77,2.77,0,0,1,138,64.24a3.28,3.28,0,0,1,2.24-1,6,6,0,0,1,2.58,1.66,23.2,23.2,0,0,1,1.91,2.16,7.06,7.06,0,0,1,1.08,1.66C145.84,69.73,144.68,70.23,142.35,70.23Zm5.23,65.88a3,3,0,0,1-2.07.5c-1-.09-1.66-1.67-2.16-4.74s-.92-8.89-1.41-17.45c-.25-5.65-.5-11.21-.75-16.61s-.33-9.56-.42-12.55a4.48,4.48,0,0,1,.33-1.74,1.57,1.57,0,0,1,1.42-.58,2.94,2.94,0,0,1,3.07,2,29.69,29.69,0,0,1,.67,7.64L146.17,105c0,7.06.25,12.71.67,17,0,.25.33,2.41.91,6.73.33,1.91.58,3.91.75,5.82a1.9,1.9,0,0,1-.92,1.66Z" transform="translate(-28.7 -36.19)"/><text class="cls-2" transform="translate(34.65 196.21)">Ps</text></svg>