<?xml version="1.0" encoding="utf-8"?>
<!-- Generator: Adobe Illustrator 25.2.0, SVG Export Plug-In . SVG Version: 6.00 Build 0)  -->
<svg version="1.1" id="Livello_1" xmlns="http://www.w3.org/2000/svg" xmlns:xlink="http://www.w3.org/1999/xlink" x="0px" y="0px"
	 viewBox="0 0 180.8 233.8" style="enable-background:new 0 0 180.8 233.8;" xml:space="preserve">
<style type="text/css">
	.st0{fill:#1A1A1A;}
	.st1{enable-background:new    ;}
</style>
<path class="st0" d="M180.8,131.7v87.6c0,7.6,0.1,7.6-7.3,7.6c-56.1-0.5-112.2-1-168.4-1.6c-3.6,0-4.4-0.9-4.3-4.8
	C1,211.8,0,203.1,0,194.4c0-33,0.3-66,0.5-99c0.1-24.9,0.1-49.8,0.3-74.7c0-5.2,0.5-10.3,0.7-15.5C1.7,0.9,2.7-0.1,7,0
	c11.5,0.3,23,0.8,34.5,0.9c24.3,0.3,48.6,0.6,72.8,0.7c8.7,0,17.4-0.6,26.1-0.7c1.7,0,3.6,1.2,5,2.4c5.4,4.8,10.7,9.6,15.8,14.7
	c5.9,5.9,11.7,11.9,17.1,18.2c1.5,2.1,2.3,4.7,2.3,7.3c0.2,29.4,0.1,58.9,0.1,88.4L180.8,131.7z M137.4,5.1H5.3
	C5.3,76.6,3,148.5,5,220.6l171.3,2.2V44c-2-0.4-4-0.6-6-0.8c-9.6-0.2-19.2-0.4-28.8-0.3c-3.2,0-4.2-0.9-4.2-4.1
	C137.5,27.7,137.4,16.5,137.4,5.1z M141.8,5.9v32.9h34.4L141.8,5.9z"/>
<path class="st0" d="M104.9,66.8c-0.2,0.5-0.6,0.9-1,1.2c-0.9,0.6-1.9,0.9-3,1.1c-1.5,0.3-2.6,0.5-3.2,0.6c0.6,2.7,0.8,3.9,0.8,3.9
	c0.5,1.8,1,4.2,1.6,7.2c1.2,7.1,2.6,13,3.9,18c0.2,0.9,0.4,1.9,0.5,2.8c0,0.7-0.3,1.3-0.8,1.7c-0.6,0.5-1.3,0.8-2,0.8
	c-0.8,0-1.5-0.4-1.9-1.1c-0.5-0.6-0.9-1.2-1.2-1.9c-0.7-2.4-1.2-5-1.8-8s-1.2-6.5-1.8-10.6c-0.2-1.8-0.7-4.1-1.3-6.7
	c-0.6-2.7-1.1-4.4-1.2-5.3c-4.2,0.6-11.2,1.7-21.3,3.3L65.2,75L63,81.1l-3,8.4c-2.4,7.6-4.2,13.5-5.2,17.6c-0.2,0.9-0.6,1.8-1.2,2.5
	c-0.6,0.7-1.4,1-2.3,1c-0.7,0-1.4-0.2-1.9-0.7c-0.5-0.4-0.8-1.1-0.8-1.7c0.2-1.7,0.6-3.3,1.2-4.9c0.8-2.5,1.3-4,1.5-4.4
	c0.2-0.7,0.8-2.3,1.7-4.8c0.9-2.8,2.1-6,3.5-9.9s2.4-6.4,2.9-7.7c-3.6,0.8-6.2,1.5-8,2c-1.6,0.5-3.2,0.8-4.9,1.1
	c-0.7,0-1.4-0.3-1.7-0.9c-0.4-0.5-0.5-1.2-0.5-1.8c-0.1-0.7,0.2-1.3,0.7-1.7c0.6-0.4,1.3-0.7,2.1-0.9c2.7-0.7,5.5-1.2,8.4-1.9
	s5-1.1,6.2-1.2c0.7-2,1.2-3.7,1.6-5.2c0.2-0.9,0.7-2,1.1-3.4c0.4-1.4,1-3.1,1.5-5.1l1.6-5.3c2.7-9.4,4.2-14.7,4.6-16
	c0.3-0.8,0.6-1.6,1-2.3c0.2-0.5,0.8-0.8,1.3-0.8c1.3,0,2.6,0.2,3.8,0.7c0.3-0.3,0.5-0.6,0.7-0.9c0.2-0.4,0.6-0.7,1.1-0.9
	c0.5-0.2,1-0.2,1.5-0.2c1.2,0,2.7,1.4,4.3,4.3c1.8,3.3,3.4,6.6,4.7,10.1c0.9,2.3,2.1,5.7,3.5,10.3c1.4,4.6,2.3,7.6,2.7,9
	c0.9-0.1,1.8-0.3,2.7-0.6l1.4-0.5c0.4-0.2,0.8-0.4,1.2-0.7c0.3-0.3,0.7-0.6,1.2-0.8c0.4-0.2,0.8-0.2,1.2,0.1
	c0.9,0.5,1.5,1.5,1.3,2.6C105.3,65.8,105.1,66.3,104.9,66.8z M89.4,58.1c-0.9-3.3-1.9-6.6-3.2-9.8c-1.1-2.8-2.3-5.4-3.8-8
	c-1.5-2.7-2.8-4.4-3.9-5.2l-1.2,2.8c-1.2,2.3-2.2,4.8-3,7.2c-1.7,5.1-4.3,13.4-8,24.9L78.5,68l10-1.6l2.8-0.4
	C91.2,64.8,90.6,62.2,89.4,58.1L89.4,58.1z"/>
<path class="st0" d="M113.7,34c-1.3-0.1-2.6-0.6-3.6-1.4c-1.2-1-1.8-1.8-1.8-2.4c0-0.8,0.4-1.6,1.1-2.2c0.6-0.6,1.4-1,2.2-1
	c1,0.3,1.9,0.9,2.6,1.7c0.7,0.7,1.3,1.4,1.9,2.2c0.4,0.5,0.8,1.1,1.1,1.7C117.1,33.5,116,34,113.7,34z M118.9,99.9
	c-0.6,0.4-1.3,0.6-2.1,0.5c-1-0.1-1.7-1.7-2.2-4.7s-0.9-8.9-1.4-17.4c-0.2-5.7-0.5-11.2-0.8-16.6s-0.3-9.6-0.4-12.6
	c0-0.6,0.1-1.2,0.3-1.7c0.3-0.4,0.9-0.6,1.4-0.6c1.4-0.1,2.6,0.7,3.1,2c0.6,2.5,0.8,5.1,0.7,7.6l-0.1,12.4c0,7.1,0.2,12.7,0.7,17
	c0,0.2,0.3,2.4,0.9,6.7c0.3,1.9,0.6,3.9,0.8,5.8c0,0.7-0.3,1.3-0.9,1.7V99.9z"/>
<g class="st1">
	<path d="M89.4,152.4c-3.7,3.2-8.8,6.3-15.4,9.2c-2.4,1.1-4.8,2.1-7.2,3c-2.4,0.9-4.1,1.5-4.8,1.7c0.4,9.3,0.6,17.3,0.6,23.8
		c0,2.1,0.2,3.9,0.7,5.2c0.5,1.3,0.7,2.2,0.7,2.6c0,0.8-0.4,1.5-1.3,2.1c-0.8,0.6-1.7,0.9-2.6,0.9c-1.1,0-1.9-0.8-2.2-2.4
		c0-0.2-0.1-0.8-0.3-2.1c-0.2-1.2-0.3-2.9-0.3-5.2c0-6-0.2-15.7-0.7-29.3c-0.2-6.9-0.3-11.8-0.3-14.7c0-2.4,0-4.7,0.1-6.8
		c0.1-2.1,0.1-3.5,0.1-4.3c-4.8,1.3-9,2.6-12.5,4c-1.1,0.5-2.8,1.4-4.8,2.6c-0.9,0.5-1.8,1-2.7,1.5c-0.9,0.5-1.5,0.7-2,0.7
		c-0.6,0-1.1-0.3-1.6-0.8c-0.5-0.5-0.7-1.2-0.7-1.9c0-1,1.5-2.2,4.4-3.7c2.9-1.5,6.4-2.9,10.6-4.3c4.2-1.4,8-2.4,11.5-3.1
		c4.1-0.8,8.7-1.1,13.8-1.1c7,0,12.4,0.9,16.4,2.7c4,1.8,6,4.5,6,8.1C94.9,145.3,93.1,149.1,89.4,152.4z M84.7,136.2
		c-3.3-1.1-7.3-1.6-12.1-1.6c-3.5,0-7.1,0.2-10.8,0.7c-0.1,0.6-0.2,2-0.3,4.2c-0.1,2.2-0.2,4.3-0.2,6.3l0.1,8.4
		c0.1,1.8,0.1,4.2,0.1,7c1.6-0.2,5-1.3,10.2-3.4c5-2.2,9.3-4.7,12.7-7.4c3.4-2.7,5.2-5.6,5.2-8.7C89.7,139.1,88,137.2,84.7,136.2z"
		/>
	<path d="M132.3,189.8c-2.7,3.1-6.3,5.6-10.7,7.4c-4.4,1.9-9.1,2.8-13.9,2.8c-3.3,0-5.5-0.3-6.6-0.9c-1.1-0.6-1.7-1.5-1.7-2.5
		c0-0.7,0.9-1.9,2.6-3.6c1.8-1.7,2.9-2.6,3.6-2.6c0.9,0,1.4,0.2,1.4,0.6c0,0.3-0.2,0.6-0.6,0.9c-0.4,0.3-0.6,0.6-0.6,0.8
		c0,0.3,0.5,0.6,1.4,0.9c1,0.3,2.1,0.5,3.5,0.5c3.2,0,6.4-0.6,9.7-1.8c3.2-1.2,5.9-2.7,8-4.6c2.1-1.9,3.1-3.9,3.1-6.1
		c0-2.1-0.7-3.7-1.9-4.9c-1.3-1.2-2.9-2.1-4.9-2.7c-1.9-0.6-5.2-1.4-9.8-2.5c-5-1.1-9-2.2-11.7-3c-2.8-0.9-5-2-6.7-3.3
		c-1.7-1.3-2.5-3-2.5-5.1c0-3.7,1.8-7,5.4-10.1c3.6-3.1,7.7-5.5,12.4-7.2c4.7-1.8,8.3-2.6,10.8-2.6c2.6,0,3.9,0.8,3.9,2.3
		c0,0.9-0.3,1.9-0.9,3c-0.6,1.1-1.5,1.7-2.8,1.7c-0.5,0-1-0.2-1.5-0.5c-0.5-0.3-1.1-0.5-1.6-0.5c-1.5,0-3.9,0.5-7.2,1.5
		c-3.3,1-6.3,2.5-8.9,4.5c-2.7,2-4,4.4-4,7.2c0,1.8,1,3.2,3.2,4.1c2.1,0.9,6,2,11.7,3.3c0.7,0.2,1.4,0.4,2.1,0.5
		c0.7,0.1,1.3,0.2,1.8,0.4c5.9,1.4,10.4,2.9,13.5,4.7c3.1,1.8,4.7,4.4,4.7,7.9C136.4,183.5,135.1,186.8,132.3,189.8z"/>
</g>
</svg>
