<svg id="Livello_1" data-name="Livello 1" xmlns="http://www.w3.org/2000/svg" viewBox="0 0 238.3 299.1"><defs><style>.cls-1{fill:#1a1a1a;}.cls-2{isolation:isolate;}</style></defs><path class="cls-1" d="M209.55,163.6v87.6c0,7.6.1,7.6-7.3,7.6q-84.15-.75-168.4-1.6c-3.6,0-4.4-.9-4.3-4.8.2-8.7-.8-17.4-.8-26.1,0-33,.3-66,.5-99,.1-24.9.1-49.8.3-74.7,0-5.2.5-10.3.7-15.5.2-4.3,1.2-5.3,5.5-5.2,11.5.3,23,.8,34.5.9,24.3.3,48.6.6,72.8.7,8.7,0,17.4-.6,26.1-.7,1.7,0,3.6,1.2,5,2.4,5.4,4.8,10.7,9.6,15.8,14.7,5.9,5.9,11.7,11.9,17.1,18.2a12.65,12.65,0,0,1,2.3,7.3c.2,29.4.1,58.9.1,88.4ZM166.15,37H34.05c0,71.5-2.3,143.4-.3,215.5l171.3,2.2V75.9c-2-.4-4-.6-6-.8-9.6-.2-19.2-.4-28.8-.3-3.2,0-4.2-.9-4.2-4.1C166.25,59.6,166.15,48.4,166.15,37Zm4.4.8V70.7H205Z"/><g class="cls-2"><path d="M108.85,103.8c-2.1.2-7.2,1.2-15.2,2.9s-13.8,3.1-17.6,4.1c0,1.7,0,5.2.1,10.6s.1,10,.3,13.7a43.55,43.55,0,0,0,.5,4.8c.3,1.8.4,3,.5,3.8a42.07,42.07,0,0,1,.7,4.9,9.54,9.54,0,0,1-1.2,3.7c-.8,1.6-1.5,2.5-2,2.5a2.24,2.24,0,0,1-1.5-.8,3.38,3.38,0,0,1-.9-1.9c-.8-3.4-1.3-9-1.6-16.7-.4-9.4-.6-16.7-.6-22-.5.1-1.2.2-2.2.4s-1.9.3-2.7.4a5.33,5.33,0,0,1-2.4-.6c-.8-.4-1.3-.8-1.3-1.4a1.68,1.68,0,0,1,.6-1.4,3.69,3.69,0,0,1,1.4-.7c.5-.2.9-.3,1.1-.4,2.8-1.1,4.6-1.9,5.5-2.2l-.8-25.6a91,91,0,0,1-12.5,1.4c-3,0-5-.7-6.2-2.2a6.88,6.88,0,0,1-1.6-4c0-.7.5-1,1.5-1,.2,0,1,.3,2.7.8a15.21,15.21,0,0,0,4.3.8,106.51,106.51,0,0,0,11.7-1.1c0-.2,0-.7.1-1.8a5.58,5.58,0,0,1,1-2.8,6.38,6.38,0,0,1,1-1.4,1.69,1.69,0,0,1,1-.3c1.5,0,2.2,1.6,2.2,4.8,1.1-.2,3.5-.7,7.3-1.4s8.1-1.3,13-1.9a106.09,106.09,0,0,1,12.7-.9c2.9,0,4.4.6,4.4,1.7a8.94,8.94,0,0,1-1,3.6c-.6,1.5-1.4,2.2-2.2,2.2a1.38,1.38,0,0,1-.9-.5c-.3-.3-.5-.6-.7-.6a7.75,7.75,0,0,0-3-.5,127.28,127.28,0,0,0-14.2,1.5c-7.1,1-12.2,1.8-15.3,2.5l.9,24.7c4.1-1.1,10.5-2.5,19-4.4s13.6-2.8,15-2.8a2.27,2.27,0,0,1,1.3.3,1.74,1.74,0,0,1,.3,1.2C111.35,102.3,110.55,103.6,108.85,103.8Z"/><path d="M117.75,70.1a6.43,6.43,0,0,1-4-1.6c-1.3-1.1-2-1.9-2-2.6a3.46,3.46,0,0,1,1.2-2.4,3.35,3.35,0,0,1,2.5-1.1,7.89,7.89,0,0,1,2.9,1.8,29.74,29.74,0,0,1,2.1,2.4,4.8,4.8,0,0,1,1.1,1.8C121.45,69.5,120.25,70.1,117.75,70.1Zm5.6,72.1a3.42,3.42,0,0,1-2.2.5c-1.1-.1-1.9-1.8-2.3-5.2s-1-9.7-1.5-19.1c-.3-6.2-.6-12.2-.8-18.2s-.4-10.5-.5-13.7a3.36,3.36,0,0,1,.4-1.9A1.75,1.75,0,0,1,118,84c1.8,0,2.9.7,3.3,2.2s.7,4.2.7,8.4l-.1,13.5a186,186,0,0,0,.7,18.6c0,.2.3,2.7,1,7.3a55.23,55.23,0,0,1,.8,6.4A1.9,1.9,0,0,1,123.35,142.2Z"/><path d="M177.25,155.2a40.63,40.63,0,0,1-8.4,11.9,47.93,47.93,0,0,1-10.3,7.6c-3.6,1.9-6.6,2.9-9.2,2.9a3.87,3.87,0,0,1-3.1-1.1,3.92,3.92,0,0,1-.9-2.6c0-.9,1.7-2,5.2-3.2a39.47,39.47,0,0,0,14.4-8.5,29.07,29.07,0,0,0,7.6-10.4,31.22,31.22,0,0,0,2.4-11.9,81.11,81.11,0,0,0-.9-12.6q-.9-5.7-2.7-14.1c-1.4-5.9-2.3-10.9-2.9-15a97.63,97.63,0,0,1-6,12.7,87.9,87.9,0,0,1-9.7,14.3,51.67,51.67,0,0,1-9.6,9.7c-2.9,2.1-5.6,3.2-8.3,3.2a5.56,5.56,0,0,1-5.1-2.7,14.21,14.21,0,0,1-1.7-7.4q0-7.8,4.8-18.3a64.87,64.87,0,0,1,12-18.1c4.8-5,9.5-7.6,14.2-7.6a4.52,4.52,0,0,1,3.7,1.7,6.29,6.29,0,0,1,1.3,4.1c0,2.1-.4,3.1-1.3,3.1q-.3,0-.9-.9a6.09,6.09,0,0,0-1.2-1.5,2.57,2.57,0,0,0-1.5-.7c-3.9,0-7.8,2.2-11.9,6.5a60.39,60.39,0,0,0-10,15.3c-2.7,5.8-4,10.6-4,14.4a8.43,8.43,0,0,0,.9,4.5,3.07,3.07,0,0,0,2.7,1.4c1.8,0,4-1.1,6.6-3.2a64.55,64.55,0,0,0,9.3-10.1,80.1,80.1,0,0,0,8.8-14.2,97.23,97.23,0,0,0,6-15.4,3,3,0,0,1,.7-1.1,1.66,1.66,0,0,1,1.2-.5,4.2,4.2,0,0,1,2.1.6c.7.4,1.1.9,1.1,1.3a4.4,4.4,0,0,1-.2,1q-.15.6-.3.6c.5,4.2,1.8,10.7,3.8,19.6,1.5,6.3,2.5,11.5,3.3,15.8a76.12,76.12,0,0,1,1.1,12.4A31,31,0,0,1,177.25,155.2Z"/></g><g class="cls-2"><path d="M126.65,230.8a3.31,3.31,0,0,1-2.4,1,1.86,1.86,0,0,1-2.1-2.1c0-15.4-.5-27.3-1.5-35.5s-2.7-12.3-5.2-12.3c-4.1,0-10.2,14.4-18.1,43.2v.1a3.17,3.17,0,0,1-.9,2.3,3,3,0,0,1-2.4,1,1.86,1.86,0,0,1-2.1-2.1c0-3.1.2-7.8.5-14.2.3-7.2.5-12.8.5-17a109.71,109.71,0,0,0-.5-12.2c-.3-2.4-1.1-3.6-2.2-3.6-2.6,0-5.9,4.8-9.9,14.3s-8.1,20.7-12.5,33.6l-1,3a4.31,4.31,0,0,1-1.3,1.9,2.93,2.93,0,0,1-1.9.8,6.25,6.25,0,0,1-1.8-.2c-.3-.2-.5-.6-.6-1.4q-.6-5.55-.9-15c-.2-1.6-.3-4.2-.5-7.9-.8-12.9-1.5-21.6-2.1-26.2s-.9-7.1-.9-7.6a4.24,4.24,0,0,1,.9-2.2c.6-.8,1.2-1.3,1.7-1.3,1.2,0,2.2.9,3,2.6.4.8.8,4.2,1.3,10.1s.8,13.2,1.1,21.9l.6,17.5c4.2-13,8.6-24.8,13.1-35.4S87.15,172,91,172c2.5,0,4.2,1.8,5.2,5.5a70.83,70.83,0,0,1,1.4,15.9c0,3.7-.1,8.9-.2,15.8l-.1,5.3a248.91,248.91,0,0,1,9.3-27.5q4.65-11.1,9.3-11.1,11.85,0,11.8,52.3A3.88,3.88,0,0,1,126.65,230.8Z"/><path d="M180.35,224a2.93,2.93,0,0,1,.8,1.4,6.78,6.78,0,0,1-1.1,3.2c-.8,1.2-1.5,1.8-2.3,1.8q-2,0-3-2.4a14,14,0,0,1-1-5.6q0-2.7.3-16.5l.1-4.4a4.76,4.76,0,0,0-1.4-3.8c-3.4,5.8-6.6,10.8-9.6,15.1a63.77,63.77,0,0,1-11.3,12.1,22.16,22.16,0,0,1-14.4,5.7,7.45,7.45,0,0,1-5.7-2.3,8.86,8.86,0,0,1-2-6c0-3.1,1.4-7.2,4.1-12.5a116.58,116.58,0,0,1,10.5-16.2,88.42,88.42,0,0,1,12.8-13.5,35.09,35.09,0,0,1,6.8-4.6,10.82,10.82,0,0,1,4.5-1.2,8.19,8.19,0,0,1,3.8,1.1,10.06,10.06,0,0,1,3.3,3.2,8.39,8.39,0,0,1,1.4,4.7,14,14,0,0,1-1.9,6.8l1.9-.6c.8,0,1.3,1,1.5,3.1.1,1.2.2,3.7.3,7.4s.2,6.8.3,9.3.2,5,.2,7.3.2,4.2.2,5.6A3.82,3.82,0,0,0,180.35,224ZM151,219.8a59.52,59.52,0,0,0,10.3-10.9c3-4.2,6.4-9.5,10-15.6a20.28,20.28,0,0,0,1.4-7.4,6.85,6.85,0,0,0-1.4-4.2,4.65,4.65,0,0,0-3.8-1.8c-1.9,0-4.4,1.3-7.3,3.9a83.34,83.34,0,0,0-10.9,11.6,96.39,96.39,0,0,0-9.5,14.4c-2.5,4.7-3.8,8.5-3.8,11.2,0,2.3,1.1,3.4,3.2,3.4C143.15,224.4,147.15,222.8,151,219.8Z"/></g></svg>