<svg id="Livello_1" data-name="Livello 1" xmlns="http://www.w3.org/2000/svg" viewBox="0 0 180.8 235.32"><defs><style>.cls-1{fill:#1a1a1a;}.cls-2{font-size:114.6px;font-family:InkFree, Ink Free;letter-spacing:-0.08em;}</style></defs><path class="cls-1" d="M209.5,167.9v87.6c0,7.6.1,7.6-7.3,7.6q-84.15-.75-168.4-1.6c-3.6,0-4.4-.9-4.3-4.8.2-8.7-.8-17.4-.8-26.1,0-33,.3-66,.5-99,.1-24.9.1-49.8.3-74.7,0-5.2.5-10.3.7-15.5.2-4.3,1.2-5.3,5.5-5.2,11.5.3,23,.8,34.5.9,24.3.3,48.6.6,72.8.7,8.7,0,17.4-.6,26.1-.7,1.7,0,3.6,1.2,5,2.4,5.4,4.8,10.7,9.6,15.8,14.7,5.9,5.9,11.7,11.9,17.1,18.2a12.2,12.2,0,0,1,2.3,7.3c.2,29.4.1,58.9.1,88.4ZM166.1,41.3H34c0,71.5-2.3,143.4-.3,215.5L205,259V80.2c-2-.4-4-.6-6-.8-9.6-.2-19.2-.4-28.8-.3-3.2,0-4.2-.9-4.2-4.1C166.2,63.9,166.1,52.7,166.1,41.3Zm4.4.8V75h34.4Z" transform="translate(-28.7 -36.19)"/><text class="cls-2" transform="translate(20.65 108.21)">Fig<tspan x="0" y="89.52">ma</tspan></text></svg>